#!OML:ASF I:\Actors\actors\Patient Classification 2\Patient 1\Session 1\actor1.ASF
:FULLY-SPECIFIED
:DEGREES
361
root -0.671103 18.7978 5.35202 4.97939 7.28527 -0.579093
lowerback 8.25628 4.48776 5.91793
upperback 2.30679 6.51147 2.59353
thorax -1.85832 3.23159 -1.22354
lowerneck -9.37046 -9.58641 -8.59726
upperneck 17.4782 -12.6943 5.38864
head 7.83461 -6.13899 1.86815
rclavicle 1.0138e-013 5.08889e-014
rhumerus 32.1142 -5.67431 -71.898
rradius 41.1818
rwrist -32.3486
rhand -8.04464 -64.142
rfingers 7.12502
rthumb 17.8659 93.3413
lclavicle 1.0138e-013 5.08889e-014
lhumerus -29.3408 -35.8862 104.448
lradius 105.362
lwrist 75.1601
lhand -16.0972 -12.6456
lfingers 7.12502
lthumb 10.1064 17.0917
rfemur 0 0 0
rtibia 0
rfoot 0 0
rtoes 0
lfemur -11.703 -8.71367 -12.6044
ltibia 22.3288
lfoot -18.7301 11.2385
ltoes -55.6277
362
root -0.671247 18.7983 5.35247 5.04379 7.36076 -0.644774
lowerback 8.3127 4.45024 6.09233
upperback 2.32967 6.48049 2.65223
thorax -1.85488 3.2161 -1.25927
lowerneck -9.46676 -9.56134 -8.50314
upperneck 17.5517 -12.6548 5.30423
head 7.8608 -6.11847 1.82591
rclavicle 8.74653e-014 2.54444e-014
rhumerus 32.1807 -5.70283 -71.9422
rradius 41.165
rwrist -32.2838
rhand -7.96375 -64.0371
rfingers 7.12502
rthumb 17.9437 93.2293
lclavicle 8.74653e-014 2.54444e-014
lhumerus -29.2706 -35.8396 104.421
lradius 105.42
lwrist 75.2045
lhand -16.1278 -12.6603
lfingers 7.12502
lthumb 10.0769 17.0784
rfemur 0 0 0
rtibia 0
rfoot 0 0
rtoes 0
lfemur -11.7955 -8.61329 -12.5087
ltibia 22.3157
lfoot -18.6805 11.0968
ltoes -55.5919
363
root -0.671696 18.7983 5.35563 5.09736 7.44523 -0.641068
lowerback 8.33094 4.42481 6.18091
upperback 2.34747 6.45511 2.68061
thorax -1.84143 3.20392 -1.2768
lowerneck -9.49739 -9.55253 -8.55354
upperneck 17.6427 -12.6565 5.40655
head 7.9069 -6.11145 1.86328
rclavicle 2.26615e-014 -3.33958e-014
rhumerus 32.1766 -5.69991 -71.9029
rradius 41.1341
rwrist -32.2172
rhand -8.01272 -63.8626
rfingers 7.12502
rthumb 17.8966 93.0591
lclavicle 2.26615e-014 -3.33958e-014
lhumerus -29.282 -35.8587 104.391
lradius 105.517
lwrist 75.2502
lhand -16.1306 -12.6642
lfingers 7.12502
lthumb 10.0741 17.0747
rfemur 0 0 0
rtibia 0
rfoot 0 0
rtoes 0
lfemur -11.854 -8.58137 -12.4932
ltibia 22.2942
lfoot -18.6355 10.9958
ltoes -55.5753
364
root -0.671147 18.7984 5.36006 5.15782 7.50933 -0.527929
lowerback 8.32201 4.4219 6.16654
upperback 2.34568 6.4484 2.64545
thorax -1.83627 3.20079 -1.30371
lowerneck -9.41866 -9.54281 -8.58052
upperneck 17.6635 -12.6668 5.51542
head 7.90978 -6.10977 1.90472
rclavicle -1.46306e-013 1.90833e-014
rhumerus 32.0701 -5.71681 -71.829
rradius 41.2187
rwrist -32.328
rhand -8.2759 -63.7608
rfingers 7.12502
rthumb 17.6433 92.9803
lclavicle -1.46306e-013 1.90833e-014
lhumerus -29.3151 -35.9519 104.368
lradius 105.528
lwrist 75.2464
lhand -16.098 -12.6637
lfingers 7.12502
lthumb 10.1056 17.0737
rfemur 0 0 0
rtibia 0
rfoot 0 0
rtoes 0
lfemur -11.8957 -8.63756 -12.607
ltibia 22.2747
lfoot -18.629 10.9766
ltoes -55.5618
365
root -0.669877 18.7995 5.36498 5.20744 7.52337 -0.464291
lowerback 8.33296 4.42488 6.1749
upperback 2.32202 6.45492 2.63235
thorax -1.86404 3.20274 -1.32445
lowerneck -9.33101 -9.52036 -8.53463
upperneck 17.6485 -12.6512 5.52653
head 7.8856 -6.10051 1.90789
rclavicle 1.55052e-014 -1.11319e-014
rhumerus 31.894 -5.7255 -71.7785
rradius 41.4366
rwrist -32.5459
rhand -8.37223 -64.0464
rfingers 7.12502
rthumb 17.5507 93.2742
lclavicle 1.55052e-014 -1.11319e-014
lhumerus -29.3415 -36.0087 104.394
lradius 105.449
lwrist 75.2202
lhand -16.008 -12.7095
lfingers 7.12502
lthumb 10.1925 17.0236
rfemur 0 0 0
rtibia 0
rfoot 0 0
rtoes 0
lfemur -11.9165 -8.65703 -12.6738
ltibia 22.2468
lfoot -18.6239 11.0016
ltoes -55.5579
366
root -0.66933 18.8008 5.36973 5.21553 7.51773 -0.474318
lowerback 8.36182 4.39854 6.23088
upperback 2.32015 6.4276 2.6531
thorax -1.87989 3.18844 -1.33407
lowerneck -9.33283 -9.46938 -8.39017
upperneck 17.6418 -12.5779 5.39271
head 7.8592 -6.06833 1.85214
rclavicle -1.78906e-014 3.18055e-015
rhumerus 31.8372 -5.74908 -71.8536
rradius 41.5408
rwrist -32.5959
rhand -8.21713 -64.3462
rfingers 7.12502
rthumb 17.6999 93.5606
lclavicle -1.78906e-014 3.18055e-015
lhumerus -29.329 -35.9672 104.392
lradius 105.397
lwrist 75.2088
lhand -15.9467 -12.8004
lfingers 7.12502
lthumb 10.2515 16.9298
rfemur 0 0 0
rtibia 0
rfoot 0 0
rtoes 0
lfemur -11.9003 -8.66906 -12.661
ltibia 22.2182
lfoot -18.6114 11.052
ltoes -55.5841
